<mxfile host="app.diagrams.net" modified="2021-08-01T20:52:34.906Z" agent="5.0 (Windows NT 10.0; Win64; x64) AppleWebKit/537.36 (KHTML, like Gecko) Chrome/92.0.4515.107 Safari/537.36" etag="X4nvD-oSrA36NHmZdzgF" version="14.9.3" type="github">
  <diagram id="C5RBs43oDa-KdzZeNtuy" name="Page-1">
    <mxGraphModel dx="2249" dy="705" grid="1" gridSize="10" guides="1" tooltips="1" connect="1" arrows="1" fold="1" page="1" pageScale="1" pageWidth="827" pageHeight="1169" math="0" shadow="0">
      <root>
        <mxCell id="WIyWlLk6GJQsqaUBKTNV-0" />
        <mxCell id="WIyWlLk6GJQsqaUBKTNV-1" parent="WIyWlLk6GJQsqaUBKTNV-0" />
        <mxCell id="6rt6P1mH_81IsbYezvC0-0" value="" style="rounded=0;html=1;jettySize=auto;orthogonalLoop=1;fontSize=11;endArrow=block;endFill=0;endSize=8;strokeWidth=1;shadow=0;labelBackgroundColor=none;edgeStyle=orthogonalEdgeStyle;entryX=0.5;entryY=0;entryDx=0;entryDy=0;" edge="1" parent="WIyWlLk6GJQsqaUBKTNV-1" source="6rt6P1mH_81IsbYezvC0-1">
          <mxGeometry relative="1" as="geometry">
            <mxPoint x="-530" y="200" as="targetPoint" />
          </mxGeometry>
        </mxCell>
        <mxCell id="6rt6P1mH_81IsbYezvC0-1" value="Voláme funkci se zadaným počtem hlav a nohou" style="rounded=1;whiteSpace=wrap;html=1;fontSize=12;glass=0;strokeWidth=1;shadow=0;fillColor=#fff2cc;strokeColor=#d6b656;" vertex="1" parent="WIyWlLk6GJQsqaUBKTNV-1">
          <mxGeometry x="-620" y="130" width="180" height="40" as="geometry" />
        </mxCell>
        <mxCell id="6rt6P1mH_81IsbYezvC0-2" value="" style="edgeStyle=orthogonalEdgeStyle;rounded=0;orthogonalLoop=1;jettySize=auto;html=1;" edge="1" parent="WIyWlLk6GJQsqaUBKTNV-1" source="6rt6P1mH_81IsbYezvC0-3" target="6rt6P1mH_81IsbYezvC0-1">
          <mxGeometry relative="1" as="geometry" />
        </mxCell>
        <mxCell id="6rt6P1mH_81IsbYezvC0-3" value="" style="strokeWidth=2;html=1;shape=mxgraph.flowchart.start_2;whiteSpace=wrap;fillColor=#4D4D4D;" vertex="1" parent="WIyWlLk6GJQsqaUBKTNV-1">
          <mxGeometry x="-550" y="60" width="40" height="40" as="geometry" />
        </mxCell>
        <mxCell id="6rt6P1mH_81IsbYezvC0-4" value="" style="shape=ellipse;html=1;dashed=0;whitespace=wrap;aspect=fixed;strokeWidth=5;perimeter=ellipsePerimeter;fillColor=#4D4D4D;" vertex="1" parent="WIyWlLk6GJQsqaUBKTNV-1">
          <mxGeometry x="-550" y="780" width="35" height="35" as="geometry" />
        </mxCell>
        <mxCell id="6rt6P1mH_81IsbYezvC0-5" value="" style="edgeStyle=orthogonalEdgeStyle;rounded=0;orthogonalLoop=1;jettySize=auto;html=1;" edge="1" parent="WIyWlLk6GJQsqaUBKTNV-1" source="6rt6P1mH_81IsbYezvC0-6" target="6rt6P1mH_81IsbYezvC0-4">
          <mxGeometry relative="1" as="geometry" />
        </mxCell>
        <mxCell id="6rt6P1mH_81IsbYezvC0-6" value="Vytiskni &quot;Nesprávné zadanání&quot;" style="rounded=1;whiteSpace=wrap;html=1;fontSize=12;glass=0;strokeWidth=1;shadow=0;fillColor=#fff2cc;strokeColor=#d6b656;" vertex="1" parent="WIyWlLk6GJQsqaUBKTNV-1">
          <mxGeometry x="-790" y="730" width="120" height="40" as="geometry" />
        </mxCell>
        <mxCell id="6rt6P1mH_81IsbYezvC0-7" value="Ano" style="text;html=1;strokeColor=none;fillColor=none;align=center;verticalAlign=middle;whiteSpace=wrap;rounded=0;" vertex="1" parent="WIyWlLk6GJQsqaUBKTNV-1">
          <mxGeometry x="-640" y="210" width="40" height="20" as="geometry" />
        </mxCell>
        <mxCell id="6rt6P1mH_81IsbYezvC0-8" value="Vývojový diagram - koně a pštrosi" style="text;html=1;strokeColor=none;fillColor=none;align=center;verticalAlign=middle;whiteSpace=wrap;rounded=0;fontSize=23;fontStyle=1" vertex="1" parent="WIyWlLk6GJQsqaUBKTNV-1">
          <mxGeometry x="-780" y="20" width="500" height="20" as="geometry" />
        </mxCell>
        <mxCell id="6rt6P1mH_81IsbYezvC0-33" value="" style="edgeStyle=orthogonalEdgeStyle;rounded=0;orthogonalLoop=1;jettySize=auto;html=1;" edge="1" parent="WIyWlLk6GJQsqaUBKTNV-1" source="6rt6P1mH_81IsbYezvC0-9" target="6rt6P1mH_81IsbYezvC0-30">
          <mxGeometry relative="1" as="geometry" />
        </mxCell>
        <mxCell id="6rt6P1mH_81IsbYezvC0-9" value="Je počet nohou lichý ?" style="rhombus;whiteSpace=wrap;html=1;shadow=0;fontFamily=Helvetica;fontSize=12;align=center;strokeWidth=1;spacing=6;spacingTop=-4;fillColor=#f8cecc;strokeColor=#b85450;" vertex="1" parent="WIyWlLk6GJQsqaUBKTNV-1">
          <mxGeometry x="-600" y="200" width="140" height="80" as="geometry" />
        </mxCell>
        <mxCell id="6rt6P1mH_81IsbYezvC0-11" value="" style="endArrow=classic;html=1;fontSize=23;exitX=0;exitY=0.5;exitDx=0;exitDy=0;entryX=0.5;entryY=0;entryDx=0;entryDy=0;" edge="1" parent="WIyWlLk6GJQsqaUBKTNV-1" source="6rt6P1mH_81IsbYezvC0-9" target="6rt6P1mH_81IsbYezvC0-6">
          <mxGeometry width="50" height="50" relative="1" as="geometry">
            <mxPoint x="-570" y="240" as="sourcePoint" />
            <mxPoint x="-670" y="730" as="targetPoint" />
            <Array as="points">
              <mxPoint x="-730" y="240" />
              <mxPoint x="-730" y="680" />
            </Array>
          </mxGeometry>
        </mxCell>
        <mxCell id="6rt6P1mH_81IsbYezvC0-21" value="Ne" style="text;html=1;strokeColor=none;fillColor=none;align=center;verticalAlign=middle;whiteSpace=wrap;rounded=0;" vertex="1" parent="WIyWlLk6GJQsqaUBKTNV-1">
          <mxGeometry x="-580" y="270" width="40" height="20" as="geometry" />
        </mxCell>
        <mxCell id="6rt6P1mH_81IsbYezvC0-37" value="" style="edgeStyle=orthogonalEdgeStyle;rounded=0;orthogonalLoop=1;jettySize=auto;html=1;" edge="1" parent="WIyWlLk6GJQsqaUBKTNV-1" source="6rt6P1mH_81IsbYezvC0-22" target="6rt6P1mH_81IsbYezvC0-34">
          <mxGeometry relative="1" as="geometry" />
        </mxCell>
        <mxCell id="6rt6P1mH_81IsbYezvC0-22" value="Začni se samými pštrosy&amp;nbsp;" style="rounded=1;whiteSpace=wrap;html=1;fontSize=12;glass=0;strokeWidth=1;shadow=0;fillColor=#fff2cc;strokeColor=#d6b656;" vertex="1" parent="WIyWlLk6GJQsqaUBKTNV-1">
          <mxGeometry x="-590" y="430" width="120" height="40" as="geometry" />
        </mxCell>
        <mxCell id="6rt6P1mH_81IsbYezvC0-26" value="Odečti pštrosa a přičti koně" style="rounded=1;whiteSpace=wrap;html=1;fontSize=12;glass=0;strokeWidth=1;shadow=0;fillColor=#fff2cc;strokeColor=#d6b656;" vertex="1" parent="WIyWlLk6GJQsqaUBKTNV-1">
          <mxGeometry x="-580" y="620" width="100" height="40" as="geometry" />
        </mxCell>
        <mxCell id="6rt6P1mH_81IsbYezvC0-35" value="" style="edgeStyle=orthogonalEdgeStyle;rounded=0;orthogonalLoop=1;jettySize=auto;html=1;" edge="1" parent="WIyWlLk6GJQsqaUBKTNV-1" source="6rt6P1mH_81IsbYezvC0-30">
          <mxGeometry relative="1" as="geometry">
            <mxPoint x="-530" y="430" as="targetPoint" />
          </mxGeometry>
        </mxCell>
        <mxCell id="6rt6P1mH_81IsbYezvC0-30" value="Je počet nohou moc velký nebo moc malý?" style="rhombus;whiteSpace=wrap;html=1;shadow=0;fontFamily=Helvetica;fontSize=12;align=center;strokeWidth=1;spacing=6;spacingTop=-4;fillColor=#f8cecc;strokeColor=#b85450;" vertex="1" parent="WIyWlLk6GJQsqaUBKTNV-1">
          <mxGeometry x="-615" y="300" width="170" height="110" as="geometry" />
        </mxCell>
        <mxCell id="6rt6P1mH_81IsbYezvC0-31" value="" style="endArrow=classic;html=1;exitX=0;exitY=0.5;exitDx=0;exitDy=0;" edge="1" parent="WIyWlLk6GJQsqaUBKTNV-1" source="6rt6P1mH_81IsbYezvC0-30">
          <mxGeometry width="50" height="50" relative="1" as="geometry">
            <mxPoint x="-540" y="470" as="sourcePoint" />
            <mxPoint x="-730" y="355" as="targetPoint" />
          </mxGeometry>
        </mxCell>
        <mxCell id="6rt6P1mH_81IsbYezvC0-32" value="Ano" style="text;html=1;strokeColor=none;fillColor=none;align=center;verticalAlign=middle;whiteSpace=wrap;rounded=0;" vertex="1" parent="WIyWlLk6GJQsqaUBKTNV-1">
          <mxGeometry x="-640" y="330" width="40" height="20" as="geometry" />
        </mxCell>
        <mxCell id="6rt6P1mH_81IsbYezvC0-38" value="" style="edgeStyle=orthogonalEdgeStyle;rounded=0;orthogonalLoop=1;jettySize=auto;html=1;" edge="1" parent="WIyWlLk6GJQsqaUBKTNV-1" source="6rt6P1mH_81IsbYezvC0-34" target="6rt6P1mH_81IsbYezvC0-26">
          <mxGeometry relative="1" as="geometry" />
        </mxCell>
        <mxCell id="6rt6P1mH_81IsbYezvC0-34" value="Odpovídá počet hlav a nohou?" style="rhombus;whiteSpace=wrap;html=1;shadow=0;fontFamily=Helvetica;fontSize=12;align=center;strokeWidth=1;spacing=6;spacingTop=-4;fillColor=#f8cecc;strokeColor=#b85450;" vertex="1" parent="WIyWlLk6GJQsqaUBKTNV-1">
          <mxGeometry x="-615" y="500" width="170" height="80" as="geometry" />
        </mxCell>
        <mxCell id="6rt6P1mH_81IsbYezvC0-39" value="Ne" style="text;html=1;strokeColor=none;fillColor=none;align=center;verticalAlign=middle;whiteSpace=wrap;rounded=0;" vertex="1" parent="WIyWlLk6GJQsqaUBKTNV-1">
          <mxGeometry x="-570" y="585" width="40" height="20" as="geometry" />
        </mxCell>
        <mxCell id="6rt6P1mH_81IsbYezvC0-40" value="" style="endArrow=classic;html=1;exitX=0;exitY=0.5;exitDx=0;exitDy=0;entryX=0;entryY=0.5;entryDx=0;entryDy=0;" edge="1" parent="WIyWlLk6GJQsqaUBKTNV-1" source="6rt6P1mH_81IsbYezvC0-26" target="6rt6P1mH_81IsbYezvC0-34">
          <mxGeometry width="50" height="50" relative="1" as="geometry">
            <mxPoint x="-540" y="670" as="sourcePoint" />
            <mxPoint x="-680" y="550" as="targetPoint" />
            <Array as="points">
              <mxPoint x="-680" y="640" />
              <mxPoint x="-680" y="540" />
            </Array>
          </mxGeometry>
        </mxCell>
        <mxCell id="6rt6P1mH_81IsbYezvC0-41" value="Vytiskni počet koní a počet pštrosů" style="rounded=1;whiteSpace=wrap;html=1;fontSize=12;glass=0;strokeWidth=1;shadow=0;fillColor=#fff2cc;strokeColor=#d6b656;" vertex="1" parent="WIyWlLk6GJQsqaUBKTNV-1">
          <mxGeometry x="-430" y="730" width="120" height="40" as="geometry" />
        </mxCell>
        <mxCell id="6rt6P1mH_81IsbYezvC0-42" value="" style="endArrow=classic;html=1;exitX=1;exitY=0.5;exitDx=0;exitDy=0;entryX=0.5;entryY=0;entryDx=0;entryDy=0;" edge="1" parent="WIyWlLk6GJQsqaUBKTNV-1" source="6rt6P1mH_81IsbYezvC0-34" target="6rt6P1mH_81IsbYezvC0-41">
          <mxGeometry width="50" height="50" relative="1" as="geometry">
            <mxPoint x="-540" y="670" as="sourcePoint" />
            <mxPoint x="-490" y="620" as="targetPoint" />
            <Array as="points">
              <mxPoint x="-370" y="540" />
            </Array>
          </mxGeometry>
        </mxCell>
        <mxCell id="6rt6P1mH_81IsbYezvC0-43" value="Ano" style="text;html=1;strokeColor=none;fillColor=none;align=center;verticalAlign=middle;whiteSpace=wrap;rounded=0;" vertex="1" parent="WIyWlLk6GJQsqaUBKTNV-1">
          <mxGeometry x="-445" y="510" width="40" height="20" as="geometry" />
        </mxCell>
        <mxCell id="6rt6P1mH_81IsbYezvC0-45" value="" style="endArrow=none;html=1;entryX=0;entryY=0.5;entryDx=0;entryDy=0;" edge="1" parent="WIyWlLk6GJQsqaUBKTNV-1" target="6rt6P1mH_81IsbYezvC0-41">
          <mxGeometry width="50" height="50" relative="1" as="geometry">
            <mxPoint x="-530" y="750" as="sourcePoint" />
            <mxPoint x="-490" y="620" as="targetPoint" />
          </mxGeometry>
        </mxCell>
      </root>
    </mxGraphModel>
  </diagram>
</mxfile>
